<svg preserveAspectRatio="none" width="100%" height="100%" overflow="visible" style="display: block;" viewBox="0 0 399.632 26.3975" fill="none" xmlns="http://www.w3.org/2000/svg">
<g id="Group 2">
<path id="Vector" d="M167.668 0.206282C169.299 0.191735 169.913 0.244935 171.524 0.51503C173.097 2.73072 178.75 12.9817 179.674 15.2537C182.045 11.1684 184.742 4.59425 187.632 0.817908C188.283 -0.0318933 190.489 0.290308 191.551 0.408638C191.549 2.60653 191.758 26.031 191.884 25.6402C190.984 26.2755 189.026 26.2531 188.065 25.6819C186.792 24.2886 187.237 11.258 187.235 8.49499C187.267 7.40614 187.374 6.16141 187.442 5.06084C185.338 8.81395 183.33 12.4741 181.439 16.3443C180.63 18.0024 180.21 19.7222 179.461 21.156L179.123 21.1803C177.549 19.9354 171.021 7.6428 169.662 5.27144C169.579 11.0005 169.808 16.7974 169.885 22.5287C169.903 23.8998 170.385 25.0987 169.162 26.0232C168.401 26.1144 168.304 26.1163 167.595 25.8338C167.586 25.8197 167.345 25.4207 167.345 25.4207C167.764 17.4155 167.609 9.37476 167.125 1.37916C167.075 0.555193 167.361 0.491141 167.668 0.206282Z" fill="white"/>
<path id="Vector_2" d="M51.5778 11.1842C51.5546 9.45116 51.0478 1.85093 51.2404 0.760344C52.7867 -0.858708 55.7387 0.737763 55.7511 1.61188C55.7858 4.05446 56.319 25.2022 56.037 25.7672C55.3869 26.166 54.5259 26.1799 53.7542 26.2589C53.0818 26.1321 52.9596 26.0772 52.3453 25.7832C50.7434 24.065 51.4625 16.3193 51.5094 13.5966C47.4708 13.3406 42.8384 13.4348 38.7854 13.5267C38.7381 17.0564 39.221 21.5281 38.6367 24.9992C38.45 26.4422 35.1921 26.3041 34.5944 25.8542C34.0136 25.417 34.4083 20.4821 34.4194 19.6611C34.4444 15.6405 34.4168 11.6197 34.3365 7.60001C34.308 5.75841 34.2429 2.65535 34.1389 0.712796C34.2906 0.515436 34.4214 0.345432 34.531 0.202785C40.0508 -0.205614 38.9509 3.19924 38.9685 7.36574C38.9739 8.66085 38.9177 9.9818 38.8936 11.2769C42.9671 11.5244 47.4788 11.3327 51.5778 11.1842Z" fill="white"/>
<path id="Vector_3" d="M366.708 18.7915C366.658 16.3819 365.968 1.70693 366.404 0.807839C366.65 0.305427 366.88 0.257443 367.377 0.106763C368.18 0.272858 368.871 0.765932 368.897 1.6572C368.997 5.09875 368.888 8.55831 368.847 12.0029C368.801 16.5326 368.869 21.0626 369.044 25.5891C368.347 26.1067 368.15 25.9844 367.205 26.1071C366.869 26.0046 366.287 25.7617 366.072 25.4833C362.887 21.39 359.582 17.4081 356.256 13.4318C354.478 11.3075 352.541 8.9895 351.1 6.62508C350.761 11.6946 351.536 19.5938 351.219 24.8526C351.186 25.4056 350.605 25.893 350.086 26.1601C349.193 26.1931 349.499 26.2964 348.759 25.8425C348.446 25.1957 348.564 24.1687 348.614 23.4457C349.115 15.9356 348.598 8.34879 348.535 0.83519C348.531 0.495617 349.03 0.343201 349.293 0.209239C351.297 0.240287 351.423 0.28697 352.708 1.76598C357.42 7.19698 361.786 13.5918 366.708 18.7915Z" fill="white"/>
<path id="Vector_4" d="M119.195 19.3723C119.09 18.397 118.429 1.3645 118.571 0.734209C119.322 -0.117329 120.255 0.0709164 121.053 0.757228C121.604 4.83406 120.773 20.4905 121.195 25.568C121.036 25.7955 120.899 25.9905 120.785 26.1529C120.54 26.1394 120.295 26.1197 120.051 26.0936C119.635 26.0485 118.831 25.939 118.558 25.5962C113.533 19.2941 108.264 13.1469 103.197 6.8767C103.385 12.1216 103.288 17.3865 103.57 22.6282C103.642 23.9674 103.396 26.7076 101.457 26.2411C100.619 25.3333 101.112 20.7966 101.124 19.343C101.149 14.6126 101.073 9.88227 100.896 5.15539C100.838 3.91717 100.418 0.973908 101.025 0.242002C102.084 0.187071 103.524 -0.0148448 104.208 0.85276C109.122 7.0808 114.4 13.0622 119.195 19.3723Z" fill="white"/>
<path id="Vector_5" d="M76.7855 0.0193067C77.9965 0.146321 79.1186 0.561451 79.9765 1.45207C82.3233 3.88814 85.7136 16.3245 87.2729 20.2728C87.6412 21.2055 89.7101 25.3768 89.7018 25.851C88.8753 26.3994 85.1951 26.1547 84.724 25.5092C83.1985 23.419 83.2285 20.0161 81.8667 17.777C81.6244 17.3786 81.1524 17.4509 80.7305 17.4172C78.1546 17.4326 75.5789 17.4635 73.0033 17.5097C72.3272 19.9191 70.9189 27.7831 67.4144 25.8329C67.3267 24.801 68.8372 23.0176 69.2393 21.7654C71.5803 14.4755 74.2799 7.26715 76.7855 0.0193067ZM73.5923 15.3615L77.5749 15.4432C78.7317 15.4236 80.113 15.4328 81.2418 15.3242C80.4461 13.338 78.2549 5.55279 77.1986 4.83478C75.8432 8.05812 74.9245 12.1404 73.5923 15.3615Z" fill="white"/>
<path id="Vector_6" d="M276.806 0.0146579C282.077 1.00233 282.913 8.25278 284.403 12.733C285.957 17.4091 287.694 21.2128 289.501 25.6724L289.249 26.0309C288.482 26.3448 288.144 26.2317 287.434 26.228C282.149 26.2007 284.034 20.9939 281.639 17.7289C281.341 17.3225 280.862 17.415 280.262 17.3789C277.844 17.3761 275.427 17.3904 273.008 17.4223C272.129 19.7362 270.878 28.0279 267.192 25.8322C267.183 25.4212 269.003 21.6698 269.341 20.8656C272.101 14.2893 273.901 6.42638 276.806 0.0146579ZM273.36 15.3202L277.548 15.3397L281.118 15.3022C280.377 13.291 278.135 5.93592 276.73 4.9934C276.246 7.04257 274.274 13.3711 273.36 15.3202Z" fill="white"/>
<path id="Vector_7" d="M212.815 0.118094C215.29 0.629625 216.573 1.55628 217.494 4.04055C219.867 10.5165 221.463 17.2776 224.554 23.4807C225.076 24.5261 225.714 25.2315 224.832 26.1768C224.472 26.296 224.138 26.3831 223.79 26.3588C217.746 25.9356 220.125 21.3668 217.683 17.645C217.433 17.2657 216.762 17.3645 216.213 17.3451C213.796 17.3443 211.343 17.3983 208.922 17.432C208.314 19.3589 207.715 21.2958 207.061 23.2088C206.364 25.2545 205.696 26.5635 203.24 25.9402L203.044 25.5995C203.906 23.726 204.977 22.1013 205.574 20.1184C205.874 19.1194 206.234 18.0599 206.579 17.0763L209.875 7.95541C210.691 5.69543 211.784 2.16205 212.815 0.118094ZM209.419 15.4108L213.538 15.446L217.046 15.3552C216.373 13.5527 213.881 5.35716 213.015 4.82045C212.248 6.99467 209.925 13.2744 209.419 15.4108Z" fill="white"/>
<path id="Vector_8" d="M247.176 0.0376952C249.614 -0.130137 255.644 0.152551 256.284 3.23737C256.534 4.4363 255.548 5.60938 254.895 6.5406C252.825 3.96949 249.616 1.38448 246.06 2.14938C237.614 3.96645 237.473 18.3896 243.95 22.5628C246.87 24.4455 249.467 24.1304 252.687 23.4409C252.76 20.8928 252.719 18.3429 252.558 15.799C252.537 15.5621 252.146 14.1695 252.061 13.8518C258.012 14.1402 257.2 15.7041 256.923 21.0191C256.842 22.5893 256.836 24.3686 256.831 25.9566C250.798 25.8502 244.484 27.8716 239.293 23.658C233.726 19.1393 233.784 9.80237 238.203 4.50968C240.697 1.51996 243.39 0.40875 247.176 0.0376952Z" fill="white"/>
<path id="Vector_9" d="M298.604 0.155285C301.334 0.458382 315.707 0.223675 316.369 0.821402C316.43 1.27605 316.493 2.37988 316.267 2.76657C313.512 7.48802 310.644 12.0933 308.136 16.962C307.068 19.0348 305.787 21.5877 304.397 23.428C306.673 23.2506 315.001 22.5536 317.142 23.6308C317.685 23.903 317.696 25.4821 317.696 26.1374C311.575 25.8362 305.376 26.0099 299.325 25.6024C298.828 25.569 299.527 23.2858 299.677 22.9979C300.969 20.521 302.426 18.1138 303.817 15.6866C306.258 11.4654 308.609 7.19318 310.872 2.87317C310.424 2.91573 309.975 2.94873 309.525 2.9724C307.231 3.11331 300.993 3.81937 299.262 2.37011C298.602 1.81732 298.637 0.972518 298.604 0.155285Z" fill="white"/>
<path id="Vector_10" d="M396.725 0.27883C396.979 0.209352 397.222 0.280349 397.487 0.324641C399.767 4.37281 389.59 2.88686 388.09 2.70404L387.953 11.4072C389.228 11.4281 394.864 11.1308 395.524 11.5562C396.002 14.7893 389.923 13.7936 387.99 13.7074C387.96 16.9368 387.984 20.1666 388.058 23.3954C390.993 23.3711 394.732 23.2669 397.617 23.02C398.203 22.9043 398.779 22.7074 399.289 22.995C400.29 24.5362 398.927 25.874 397.463 25.9468C392.854 26.1763 388.114 25.9583 383.483 25.8786C383.613 20.8988 383.62 15.9168 383.509 10.9367C383.466 7.73489 383.487 3.63917 383.101 0.498121C387.615 0.347007 392.165 0.518311 396.725 0.27883Z" fill="white"/>
<path id="Vector_11" d="M12.075 0.0338591C14.4718 -0.0729632 23.216 0.379735 20.8095 4.94986C20.539 5.46378 20.1768 5.96965 19.6136 6.13141C18.4049 5.15741 17.8753 4.04143 16.369 3.22376C7.66666 -1.50073 2.86574 8.67365 4.89515 15.8032C6.74717 22.3091 11.237 24.0645 17.3319 22.5714C19.0495 22.0329 20.5057 21.0876 22.0601 20.1744C20.3273 23.8111 18.249 25.6909 14.1275 26.2492C1.22715 27.9959 -3.84169 13.9294 3.15494 4.57858C5.40972 1.56541 8.37686 0.448989 12.075 0.0338591Z" fill="white"/>
<path id="Vector_12" d="M329.935 0.247696C330.906 0.133926 334.065 0.255733 334.032 1.48918C333.963 4.13585 334.542 25.5522 334.438 25.8053C333.072 26.0939 331.453 26.3642 330.365 25.319C329.538 22.7181 330.085 11.9732 329.853 8.47041C329.761 7.07868 329.538 2.07453 329.546 0.598128L329.935 0.247696Z" fill="white"/>
</g>
</svg>
