<svg width="672" height="184" viewBox="0 0 672 184" fill="none" xmlns="http://www.w3.org/2000/svg">
<path d="M281.771 139.306C284.513 139.282 285.545 139.371 288.251 139.825C290.895 143.549 300.395 160.776 301.948 164.594C305.934 157.729 310.465 146.681 315.323 140.334C316.416 138.906 320.123 139.448 321.908 139.646C321.904 143.34 322.256 182.706 322.468 182.049C320.956 183.117 317.664 183.079 316.051 182.119C313.91 179.778 314.659 157.879 314.655 153.236C314.708 151.406 314.888 149.314 315.003 147.465C311.467 153.772 308.092 159.923 304.915 166.427C303.554 169.213 302.85 172.104 301.59 174.513L301.022 174.554C298.377 172.462 287.406 151.804 285.123 147.819C284.983 157.447 285.367 167.188 285.497 176.82C285.528 179.124 286.338 181.139 284.282 182.693C283.005 182.846 282.84 182.849 281.649 182.374C281.635 182.351 281.228 181.68 281.228 181.68C281.933 168.227 281.672 154.714 280.859 141.277C280.775 139.893 281.256 139.785 281.771 139.306Z" fill="white"/>
<path d="M86.6783 157.755C86.6393 154.843 85.7877 142.071 86.1113 140.238C88.71 137.517 93.6708 140.2 93.6916 141.669C93.75 145.774 94.6461 181.313 94.1721 182.263C93.0797 182.933 91.6326 182.956 90.3359 183.089C89.2058 182.876 89.0004 182.784 87.9682 182.29C85.2761 179.402 86.4846 166.385 86.5634 161.81C79.7764 161.379 71.9914 161.538 65.1803 161.692C65.1007 167.624 65.9122 175.139 64.9303 180.972C64.6165 183.397 59.1416 183.165 58.1371 182.409C57.1611 181.674 57.8244 173.381 57.843 172.001C57.885 165.244 57.8386 158.487 57.7036 151.732C57.6558 148.637 57.5464 143.422 57.3716 140.158C57.6266 139.826 57.8463 139.54 58.0305 139.301C67.3068 138.614 65.4583 144.336 65.4879 151.338C65.497 153.515 65.4025 155.735 65.362 157.911C72.2078 158.327 79.7899 158.005 86.6783 157.755Z" fill="white"/>
<path d="M616.266 170.54C616.182 166.491 615.022 141.829 615.755 140.318C616.167 139.474 616.554 139.393 617.39 139.14C618.74 139.419 619.9 140.247 619.944 141.745C620.112 147.529 619.929 153.343 619.86 159.132C619.783 166.744 619.896 174.357 620.192 181.964C619.021 182.833 618.689 182.628 617.101 182.834C616.536 182.662 615.558 182.254 615.197 181.786C609.844 174.907 604.291 168.215 598.701 161.533C595.713 157.963 592.458 154.067 590.035 150.094C589.466 158.613 590.768 171.888 590.236 180.726C590.181 181.655 589.203 182.474 588.331 182.923C586.831 182.979 587.346 183.152 586.102 182.389C585.576 181.302 585.773 179.577 585.857 178.362C586.7 165.74 585.832 152.991 585.726 140.364C585.719 139.793 586.558 139.537 586.999 139.312C590.367 139.364 590.579 139.442 592.739 141.928C600.657 151.055 607.994 161.802 616.266 170.54Z" fill="white"/>
<path d="M200.311 171.516C200.135 169.877 199.024 141.253 199.263 140.194C200.525 138.763 202.092 139.079 203.434 140.233C204.359 147.084 202.964 173.395 203.673 181.928C203.404 182.311 203.175 182.638 202.983 182.911C202.571 182.888 202.16 182.855 201.75 182.811C201.051 182.736 199.7 182.552 199.24 181.976C190.795 171.385 181.942 161.054 173.426 150.517C173.742 159.331 173.578 168.179 174.052 176.988C174.174 179.238 173.76 183.843 170.501 183.059C169.095 181.534 169.922 173.91 169.942 171.467C169.985 163.517 169.857 155.568 169.559 147.624C169.461 145.543 168.756 140.597 169.777 139.367C171.555 139.275 173.975 138.935 175.126 140.393C183.383 150.86 192.252 160.912 200.311 171.516Z" fill="white"/>
<path d="M129.041 138.992C131.076 139.206 132.962 139.904 134.403 141.4C138.347 145.494 144.045 166.394 146.665 173.029C147.284 174.597 150.761 181.607 150.747 182.403C149.358 183.325 143.173 182.914 142.382 181.829C139.818 178.316 139.868 172.598 137.58 168.835C137.173 168.165 136.379 168.287 135.67 168.23C131.342 168.256 127.013 168.308 122.685 168.386C121.548 172.435 119.182 185.65 113.292 182.373C113.145 180.639 115.683 177.642 116.359 175.538C120.293 163.287 124.83 151.173 129.041 138.992ZM123.674 164.776L130.367 164.913C132.311 164.88 134.633 164.895 136.53 164.713C135.192 161.375 131.51 148.292 129.735 147.085C127.457 152.502 125.913 159.362 123.674 164.776Z" fill="white"/>
<path d="M465.182 138.985C474.041 140.644 475.446 152.829 477.949 160.358C480.561 168.217 483.48 174.609 486.516 182.103L486.093 182.706C484.805 183.233 484.236 183.043 483.042 183.037C474.161 182.991 477.329 174.241 473.304 168.754C472.804 168.071 471.998 168.226 470.991 168.166C466.926 168.161 462.865 168.185 458.8 168.239C457.322 172.127 455.221 186.062 449.025 182.372C449.011 181.681 452.068 175.377 452.637 174.025C457.275 162.974 460.3 149.76 465.182 138.985ZM459.391 164.706L466.43 164.739L472.428 164.676C471.184 161.296 467.415 148.935 465.054 147.352C464.24 150.795 460.927 161.431 459.391 164.706Z" fill="white"/>
<path d="M357.643 139.158C361.803 140.018 363.959 141.575 365.506 145.75C369.494 156.633 372.176 167.996 377.372 178.42C378.248 180.177 379.32 181.362 377.839 182.951C377.233 183.151 376.671 183.298 376.087 183.257C365.929 182.546 369.928 174.868 365.824 168.613C365.404 167.976 364.276 168.142 363.353 168.109C359.292 168.108 355.169 168.198 351.101 168.255C350.079 171.493 349.072 174.748 347.974 177.963C346.803 181.401 345.679 183.601 341.552 182.553L341.224 181.981C342.672 178.832 344.471 176.102 345.474 172.77C345.978 171.091 346.584 169.31 347.164 167.657L352.703 152.329C354.075 148.531 355.91 142.593 357.643 139.158ZM351.936 164.858L358.858 164.918L364.754 164.765C363.623 161.736 359.435 147.963 357.979 147.061C356.691 150.715 352.787 161.268 351.936 164.858Z" fill="white"/>
<path d="M415.388 139.023C419.486 138.741 429.618 139.216 430.695 144.4C431.114 146.415 429.458 148.387 428.359 149.952C424.882 145.631 419.489 141.287 413.513 142.572C399.319 145.626 399.082 169.864 409.966 176.878C414.874 180.041 419.237 179.512 424.649 178.353C424.773 174.071 424.703 169.786 424.433 165.511C424.397 165.113 423.74 162.772 423.598 162.239C433.599 162.723 432.234 165.351 431.767 174.283C431.632 176.922 431.621 179.912 431.614 182.581C421.474 182.402 410.864 185.799 402.139 178.718C392.784 171.124 392.883 155.433 400.308 146.539C404.5 141.514 409.025 139.647 415.388 139.023Z" fill="white"/>
<path d="M501.815 139.221C506.401 139.73 530.556 139.336 531.669 140.34C531.771 141.104 531.877 142.959 531.498 143.609C526.867 151.544 522.047 159.283 517.833 167.465C516.038 170.949 513.885 175.239 511.55 178.332C515.374 178.033 529.37 176.862 532.968 178.672C533.88 179.13 533.898 181.784 533.898 182.885C523.613 182.379 513.195 182.671 503.026 181.986C502.191 181.93 503.366 178.093 503.617 177.609C505.788 173.446 508.237 169.401 510.576 165.322C514.677 158.228 518.628 151.048 522.43 143.788C521.679 143.86 520.923 143.915 520.168 143.955C516.311 144.192 505.829 145.379 502.921 142.943C501.811 142.014 501.87 140.594 501.815 139.221Z" fill="white"/>
<path d="M666.71 139.428C667.137 139.312 667.545 139.431 667.991 139.505C671.822 146.308 654.72 143.811 652.199 143.504L651.969 158.13C654.111 158.165 663.583 157.665 664.692 158.38C665.495 163.814 655.278 162.14 652.031 161.995C651.98 167.423 652.02 172.85 652.144 178.277C657.077 178.236 663.36 178.061 668.209 177.646C669.195 177.451 670.162 177.12 671.019 177.604C672.701 180.194 670.41 182.442 667.95 182.564C660.204 182.95 652.239 182.584 644.456 182.45C644.675 174.081 644.686 165.708 644.5 157.339C644.427 151.959 644.463 145.075 643.814 139.797C651.4 139.543 659.047 139.831 666.71 139.428Z" fill="white"/>
<path d="M20.2925 139.017C24.3204 138.838 39.0153 139.598 34.9711 147.279C34.5164 148.142 33.9078 148.992 32.9613 149.264C30.9301 147.627 30.0401 145.752 27.5086 144.378C12.8841 136.438 4.81598 153.537 8.22647 165.518C11.3389 176.451 18.8841 179.401 29.1269 176.892C32.0134 175.987 34.4606 174.399 37.0728 172.864C34.1607 178.976 30.6681 182.135 23.7417 183.073C2.06227 186.008 -6.4561 162.369 5.30199 146.655C9.09122 141.591 14.0776 139.715 20.2925 139.017Z" fill="white"/>
<path d="M554.468 139.376C556.099 139.185 561.407 139.39 561.353 141.462C561.236 145.91 562.21 181.901 562.035 182.327C559.74 182.811 557.018 183.266 555.19 181.509C553.8 177.138 554.719 159.081 554.329 153.195C554.176 150.856 553.8 142.446 553.814 139.965L554.468 139.376Z" fill="white"/>
<g clip-path="url(#clip0_937_924)">
<path d="M280.474 86.9963C280.239 86.6387 279.397 86.6523 279.03 86.4078C278.727 86.2041 278.614 85.5704 278.188 85.3802C277.396 85.0271 272.964 84.1716 271.982 84.1263C270.819 84.072 269.787 84.4839 268.582 84.3617C267.347 84.2395 266.41 83.3477 265.097 84.0403C262.055 85.6428 259.511 85.1856 256.206 85.7741C254.418 86.0955 252.548 86.53 250.778 86.9012C249.841 87.1004 248.551 88.033 247.687 87.4037C246.609 86.6251 247.062 81.8674 249.366 81.8493C251.014 81.8403 251.141 83.1304 252.078 83.9135C253.042 84.7193 255.59 85.4391 256.813 85.2535C257.057 85.2173 259.379 84.2712 259.547 84.1444C260.298 83.5605 260.728 81.9308 261.231 81.3016C261.733 80.6678 263.177 79.8983 263.725 79.0518C265.024 77.0464 265.943 73.9727 267.6 71.8451C267.971 71.3607 268.877 71.0167 269.08 70.727C269.868 69.6043 271.203 66.4446 271.742 65.1363C273.182 61.6507 276.224 55.0642 276.165 51.4518C276.156 50.8542 275.617 50.3789 275.735 49.9262C275.771 49.7904 277.043 47.7036 277.188 47.5135C277.708 46.8344 278.225 46.9069 278.587 45.9743C279.551 43.4801 278.374 41.9998 277.564 39.8767C276.876 38.066 277.251 37.4594 275.585 35.9746C275.155 35.5898 270.819 32.3215 270.52 32.2264C269.596 31.9367 266.355 30.891 265.626 30.7914C262.498 30.3568 257.415 31.2667 254.174 31.733C252.186 32.0182 250.53 33.7112 248.352 33.2585C248.117 33.0548 249.253 31.7692 249.475 31.5564C251.068 30.0309 253.907 28.5733 255.704 27.1564C257.012 26.1243 258.574 24.214 260.117 23.2045C261.199 22.4938 263.657 22.023 264.563 21.2036C265.097 20.7193 267.333 17.7316 267.885 16.9575C269.587 14.5809 269.705 13.2229 269.827 10.3031C269.868 9.32527 269.977 7.37421 269.782 6.50959C269.574 5.59518 267.559 4.14207 266.885 3.30008C266.6 2.94246 266.545 2.39472 266.215 1.93751C264.667 -0.185564 261.131 -0.239886 258.777 0.267117C259.081 1.55273 257.972 3.033 257.849 3.99268C257.709 5.11533 258.56 6.0388 258.248 7.5417C258.085 8.31579 254.522 13.0282 253.771 13.9155C250.597 17.6591 245.835 24.3724 242.594 27.3872C241.987 27.9531 241.168 28.193 240.557 28.7408C235.306 33.4441 229.041 40.1302 222.658 43.1768C220.594 44.1591 217.869 44.8155 216.135 46.3727C215.836 46.6443 213.527 48.9303 213.432 49.0933C213.319 49.288 212.011 53.0905 211.993 53.3123C211.966 53.593 213.229 54.7337 213.478 55.5893C215.315 61.9585 214.378 70.6907 216.886 76.8291C217.529 78.3999 220.72 82.0757 222.296 82.4967C223.464 82.809 224.518 82.053 225.143 82.1617C225.388 82.2024 225.759 82.6098 226.13 82.7321C227.995 83.3477 229.181 82.7049 230.793 81.8403C232.327 81.0164 232.169 81.2337 233.758 80.7312C234.754 80.4143 236.107 79.6312 237.031 79.4773C237.746 79.3551 237.732 81.9082 237.035 82.2024C233.219 84.6378 229.475 87.1955 225.587 89.5177C223.115 90.998 219.783 92.3606 217.529 93.8952C216.696 94.4656 216.18 95.3483 215.239 95.9006C214.514 96.3261 211.644 97.1137 211.517 97.2631C211.359 97.4532 211.694 98.2998 211.558 98.7706C211.051 100.527 208.711 102.514 208.217 104.479C208.059 105.108 208.213 105.66 208.109 106.14C208.068 106.312 207.706 106.281 207.661 106.453C207.43 107.403 208.181 108.1 208.462 109.001C208.566 109.323 208.494 109.983 208.602 110.101C208.688 110.192 209.064 110.142 209.213 110.269C210.101 111.052 209.865 110.748 210.761 111.219C211.59 111.649 211.395 112.097 212.726 111.935C215.225 111.622 216.42 110.599 218.52 109.585C218.914 109.4 219.412 109.508 219.856 109.341C221.739 108.621 222.201 106.923 225.238 106.131C226.922 105.688 226.542 105.592 227.778 105.049C229.462 104.316 231.055 104.75 232.59 104.438C233.64 104.221 236.673 101.749 237.465 103.053C238.167 104.212 238.026 110.816 237.963 112.523C237.529 123.627 236.705 134.641 237.284 145.745C237.56 151.024 236.496 157.049 236.813 162.273C236.922 164.038 237.402 165.894 237.51 167.682C237.764 171.969 237.189 177.732 237.746 181.688C237.909 182.852 239.131 184.287 240.222 183.3C240.543 183.005 241.204 181.752 241.381 181.294C242.101 179.447 242.666 176.736 243.255 174.803C243.427 174.232 244.242 173.576 244.405 173.015C244.78 171.743 245.17 170.457 245.527 169.162C245.953 167.605 246.057 165.767 246.383 164.138C247.062 160.743 247.03 160.58 246.985 157.071C246.967 155.75 247.347 154.464 247.22 153.215C247.139 152.386 246.587 151.481 246.564 150.711C246.541 149.901 247.012 148.973 247.003 148.027C246.976 145.795 245.804 143.776 245.627 141.925C245.265 138.145 246.84 134.388 246.261 130.657C245.921 128.457 246.537 128.634 246.56 126.764C246.582 125.112 245.962 123.233 245.853 121.568C245.645 118.326 246.311 114.632 246.098 111.6C245.948 109.431 244.482 107.86 245.188 105.561C245.251 105.357 246.084 104.999 246.265 104.094C246.532 102.75 246.007 100.301 247.619 99.5718C248.773 99.0557 250.792 99.359 252.2 98.9516C253.363 98.6121 254.635 97.6072 255.817 97.1454C256.7 96.7969 261.095 95.4931 261.819 95.4479C262.431 95.4071 267.736 96.4573 268.7 96.6837C270.669 97.1454 272.512 98.2409 274.644 97.8833L279.329 95.1084C280.153 93.7005 281.248 88.1959 280.474 86.9963ZM237.402 68.3232C236.985 69.8306 233.604 72.8455 232.409 74.1809C231.73 74.9459 230.548 76.8381 229.923 77.3497C229.521 77.6801 229.149 77.5941 228.683 77.576C228.742 76.0867 229.244 73.7825 228.81 72.3657C228.611 71.7319 227.651 71.1253 227.235 70.5504C225.016 67.4858 225.261 66.9697 224.324 63.5112C223.708 61.2388 222.395 58.6539 221.952 56.3815C221.685 55.0144 222.346 55.028 223.002 54.1452C223.228 53.8374 223.169 53.3259 223.491 53.0497C223.975 52.6333 226.085 52.1308 226.949 51.5378C227.705 51.0172 228.045 50.216 228.602 49.795C229.661 49.0028 231.924 48.8036 233.201 48.2921C234.142 47.9118 234.867 47.0517 235.908 47.0608C236.963 49.9353 237.538 52.9637 237.225 56.051L228.307 61.8453C228.588 62.3886 228.244 63.5384 228.679 63.9005C228.919 64.0997 232.01 64.8738 232.413 64.8738C234.034 64.8828 235.949 63.2351 237.27 62.4293C237.443 64.3079 237.913 66.4853 237.402 68.3232ZM247.447 66.6121C247.574 65.4668 247.148 63.8915 247.497 62.8141C247.583 62.547 250.195 58.5453 250.52 58.1515C251.793 56.6033 252.874 57.1058 251.684 54.4576C251.154 53.2806 249.955 52.4296 248.669 52.2711C247.388 52.1172 246.722 52.9139 246.048 51.7324C245.143 50.1435 246.125 50.3925 246.772 49.5913C247.981 48.0974 248.004 45.3587 247.044 43.7245C246.713 43.1677 244.776 41.6286 245.188 41.1759C245.211 41.1488 245.632 41.1895 245.84 41.0446C248.04 39.5734 249.117 39.8179 251.525 39.2611C252.562 39.0212 253.68 38.3783 254.59 38.2516C255.265 38.1565 259.207 37.9347 259.751 38.0117C260.086 38.0615 261.996 39.252 262.091 39.4105C262.231 39.6549 262.154 40.0714 262.141 40.3701C261.96 43.385 261.208 47.6402 260.756 50.7547C259.837 57.1148 258.126 63.7421 255.758 69.722C255.514 70.3422 254.432 72.9858 254.115 73.2846C253.875 73.5155 253.816 73.52 253.495 73.4747C252.499 73.3344 249.212 70.4146 247.818 70.0841C246.374 68.7487 247.297 68.0063 247.447 66.6121Z" fill="#CACACA"/>
<path d="M221.264 31.4068C221.209 31.3751 220.942 30.6281 220.666 30.3113C220.39 29.9944 219.367 28.7993 218.959 29.0664C218.656 29.2656 216.714 32.1627 216.144 32.8101C213.821 35.4447 210.997 37.6311 208.552 40.1435C208.127 40.7456 208.349 42.1896 208.059 42.7012C207.909 42.9637 206.461 43.6201 206.081 43.9958C204.913 45.1547 202.717 47.83 201.567 49.2062C199.843 51.2704 200.495 51.2342 199.965 53.484C199.662 54.7787 198.032 55.9964 200.997 55.8878C203.129 55.8108 205.995 55.1182 207.955 55.9194C209.354 56.4898 211.386 58.4228 211.273 60.0434C211.223 60.7586 210.594 60.9804 210.431 61.4603C210.309 61.8088 210.44 62.2389 210.263 62.6463C209.811 63.7101 206.846 65.2266 205.728 65.806C205.067 65.892 203.337 65.5299 202.758 65.2085C202.332 64.9731 202.314 64.4796 202.025 64.3438C201.581 64.1311 200.961 64.2895 200.422 64.1311C199.951 63.9907 198.213 62.352 197.946 62.6508C198.014 64.0179 197.425 65.2764 197.271 66.6118C197.022 68.7665 197.217 71.2472 197.041 73.3884C196.864 75.5296 196.063 77.7206 195.913 79.9523C195.791 81.7811 196.085 83.8091 195.913 85.6018C195.818 86.5705 195.262 87.6479 195.23 88.5532C195.162 90.2508 195.904 92.0842 195.692 93.9673C195.574 95.0085 194.782 96.0044 194.782 96.9052C194.782 97.4394 195.954 101.713 196.208 102.496C196.819 104.393 198.222 105.918 198.53 107.865C198.774 109.413 198.48 110.979 198.657 112.486C198.779 113.519 199.526 114.777 199.539 115.673C199.557 116.705 198.915 118.217 198.91 119.295C198.91 119.96 199.268 120.888 199.263 121.554C199.25 124.238 196.031 130.069 192.976 129.489C192.029 129.313 189.911 127.769 189.399 126.945C188.856 126.076 188.44 124.424 187.978 123.392C187.516 122.359 186.466 121.296 186.448 120.168C186.434 119.512 186.91 118.978 186.896 118.376C186.882 117.806 186.303 117.448 186.421 116.828C186.452 116.656 186.905 116.782 186.905 116.361C186.901 115.687 186.167 114.949 186.24 114.573C186.294 114.293 186.928 113.944 187.059 113.365C187.525 111.328 187.109 109.458 187.095 107.543C187.018 95.5562 187.236 84.1939 188.01 72.2612C188.087 71.0571 189.182 66.1002 187.629 65.6114C186.077 65.1225 184.193 68.9431 183.351 70.0884C182.51 71.2337 181.12 72.0756 180.83 73.6691C179.943 78.5037 179.938 77.9877 177.381 81.9758C176.597 83.198 175.371 85.7964 174.551 86.8376C174.108 87.3989 173.134 87.7067 172.795 88.2681C172.22 89.2096 171.564 93.1615 170.939 94.7595C169.866 97.5118 167.969 99.7707 166.824 102.401C166.326 103.546 166.838 104.343 166.761 105.502C166.602 107.946 164.303 109.766 163.601 112.07C162.709 113.224 159.522 112.699 158.309 112.156C157.847 111.948 157.408 111.409 157.105 111.323C156.431 111.128 155.498 111.359 154.719 111.224C152.438 110.825 153.298 109.363 153.298 107.625C153.298 107.258 153.008 106.833 153.008 106.416C153.008 105.76 153.447 105.013 153.443 104.157C153.443 103.591 153.153 102.953 153.185 102.568C153.23 102.039 153.8 102.102 153.95 101.731C154.149 101.242 153.982 100.572 154.217 100.192C154.321 100.029 154.742 100.033 154.792 99.8159C154.946 99.1596 154.045 98.2316 154.199 97.9283C154.457 97.3986 155.806 97.0682 155.869 96.9912C156.028 96.783 155.883 95.6558 156.195 95.2801C156.322 95.1262 156.996 94.9406 157.39 94.5513C158.042 93.9085 158.101 93.1253 158.468 92.5776C161.582 87.9376 163.9 82.6005 166.725 77.6617C171.455 69.3867 177.584 61.6232 180.554 52.4881C179.997 52.0807 173.786 54.7425 172.786 55.2314C171.451 55.8878 169.721 56.852 168.676 57.9022C167.72 58.8619 166.258 61.2113 165.113 61.8043C163.307 62.7413 161.406 63.2302 159.468 63.6195C157.363 64.0451 157.046 64.9821 154.217 64.6969C151.899 64.4615 148.45 61.2973 146.979 59.5002C145.372 57.5355 147.16 58.0878 147.06 57.1643C147.037 56.9561 146.761 56.6754 146.693 56.3902C146.612 56.0507 146.707 55.6252 146.612 55.3445C146.472 54.9326 145.924 55.1363 145.965 54.7515C146.349 54.7379 146.784 54.8104 147.155 54.6972C160.324 50.6819 173.632 44.5707 185.678 37.8258C187.638 36.7303 187.652 36.685 189.019 35.0644C190.929 32.801 192.283 34.4171 194.46 34.1862C195.103 34.1183 195.325 33.6837 195.669 33.6068C196.122 33.5072 198.15 33.3895 198.996 33.2809C199.843 33.1722 200.73 33.4212 201.567 33.1405C202.233 32.9142 204.935 30.2343 205.895 29.5508C206.529 29.0981 207.543 28.8853 208.036 28.3014C208.824 27.3779 208.471 25.5626 209.657 24.9425C211.187 24.1457 213.486 26.382 215.573 25.2141C215.881 25.0421 216.461 24.4853 216.479 24.1186C216.529 23.2721 215.297 20.891 215.352 20.2799C215.361 20.1712 216.682 19.5284 216.714 18.6819C216.755 17.5366 214.224 16.8168 214.478 14.4086C214.691 12.3941 217.398 10.4567 219.272 11.3847C219.72 11.6065 220.019 12.0773 220.557 12.3579C221.961 13.0913 226.239 15.1827 227.565 15.5222C228.506 15.7621 232.001 15.3547 232.291 16.2238C232.386 16.5181 232.526 18.0074 232.558 18.4465C232.834 22.5025 231.897 23.1317 231.245 26.4227C231.118 27.0701 231.295 27.7355 231.137 28.3512C230.897 29.3018 228.429 31.4792 227.402 31.6376C226.687 31.7508 226.252 31.4611 225.704 31.5063C223.88 31.6512 224.844 32.4525 222.382 31.5607C222.029 31.4339 221.472 31.538 221.286 31.4158L221.264 31.4068Z" fill="#CACACA"/>
<path d="M173.071 5.21485C173.85 5.16053 174.669 5.2918 175.443 5.21032C176.923 5.05641 178.974 4.45434 180.409 4.52677C181.21 4.56751 186.321 5.87123 187.362 6.18358C190.255 7.06179 191.02 9.03095 193.632 10.312C196.801 11.8647 199.603 12.0277 202.568 14.4903C204.705 16.2648 204.985 19.2253 204.718 21.8328C204.469 24.2773 201.11 28.0028 198.67 28.4464C194.85 29.1436 192.632 28.5234 189.264 26.8892C188.652 26.5905 187.815 25.8118 187.322 25.667C186.615 25.4588 185.918 25.6534 185.221 25.5085C184.619 25.3818 181.242 24.5262 180.975 24.327C180.337 23.8563 181.382 21.5612 181.441 20.7147C181.532 19.42 180.998 17.5459 180.178 16.5273C179.803 16.0611 179.164 15.8121 178.716 15.278C178.155 14.608 177.734 13.4944 177.186 12.7384C175.47 10.3845 173.298 8.26592 173.067 5.21485H173.071Z" fill="#CACACA"/>
<path d="M237.56 8.77273C239 9.70978 242.494 10.2349 244.142 11.1221L247.845 14.8522C247.234 16.4774 247.691 18.7906 247.053 20.3116C246.673 21.2215 243.92 23.3989 242.934 23.6524C241.947 23.9059 239.027 23.5618 238.339 22.8692C238.085 22.6157 238.122 22.1947 237.859 21.9367C235.378 19.5239 234.898 19.1934 234.197 15.649C234.034 14.8205 233.545 14.3407 233.875 13.2769C233.957 13.0098 234.491 13.1637 234.686 12.9238C234.763 12.8287 234.536 12.444 234.763 12.109C234.989 11.774 235.645 11.611 235.7 11.3892C235.876 10.6604 235.419 9.68261 235.908 8.93116C236.071 8.68219 236.958 8.16161 237.18 8.18877C237.37 8.21593 237.411 8.67314 237.565 8.77273H237.56Z" fill="#CACACA"/>
</g>
<defs>
<clipPath id="clip0_937_924">
<rect width="134.799" height="183.3" fill="white" transform="translate(145.942)"/>
</clipPath>
</defs>
</svg>
