<svg preserveAspectRatio="none" width="100%" height="100%" overflow="visible" style="display: block;" viewBox="0 0 80.2122 109.072" fill="none" xmlns="http://www.w3.org/2000/svg">
<g id="&#231;&#166;&#170; 2" clip-path="url(#clip0_0_17)">
<path id="Vector" d="M80.0535 51.7668C79.9134 51.554 79.4124 51.5621 79.1942 51.4166C79.0137 51.2954 78.9464 50.9183 78.6932 50.8051C78.2218 50.595 75.5847 50.0859 75.0001 50.059C74.3079 50.0267 73.6937 50.2718 72.9772 50.1991C72.2418 50.1263 71.6842 49.5957 70.9031 50.0078C69.0929 50.9614 67.5791 50.6893 65.6127 51.0395C64.5487 51.2307 63.4362 51.4893 62.383 51.7102C61.8254 51.8287 61.0577 52.3836 60.5432 52.0092C59.9021 51.5459 60.1715 48.7149 61.5425 48.7041C62.523 48.6987 62.5985 49.4664 63.1561 49.9324C63.7298 50.4119 65.2463 50.8402 65.9736 50.7297C66.1191 50.7082 67.5009 50.1452 67.6006 50.0698C68.0478 49.7223 68.3037 48.7526 68.6027 48.3781C68.9017 48.001 69.7609 47.5431 70.0869 47.0394C70.86 45.8461 71.4068 44.0171 72.3927 42.7511C72.6135 42.4628 73.1523 42.2581 73.2735 42.0857C73.7422 41.4177 74.5368 39.5375 74.8574 38.759C75.714 36.6849 77.5241 32.7656 77.4891 30.6161C77.4837 30.2605 77.1631 29.9777 77.2332 29.7083C77.2547 29.6275 78.0117 28.3857 78.0979 28.2726C78.4076 27.8685 78.7147 27.9116 78.9302 27.3567C79.5039 25.8725 78.8036 24.9917 78.3214 23.7283C77.912 22.6509 78.1356 22.2899 77.1443 21.4064C76.8884 21.1774 74.3079 19.2326 74.1301 19.176C73.5806 19.0036 71.6519 18.3814 71.2182 18.3221C69.3569 18.0635 66.3319 18.605 64.4032 18.8824C63.2207 19.0521 62.2348 20.0596 60.9392 19.7902C60.7991 19.669 61.4752 18.904 61.6072 18.7774C62.5554 17.8696 64.2443 17.0022 65.3137 16.1591C66.0922 15.545 67.0215 14.4082 67.94 13.8075C68.5838 13.3846 70.0465 13.1045 70.5852 12.6169C70.9031 12.3287 72.2337 10.5509 72.5624 10.0903C73.5752 8.67609 73.6452 7.86799 73.7179 6.13057C73.7422 5.54874 73.8068 4.38777 73.691 3.87327C73.5671 3.32915 72.3684 2.46448 71.9671 1.96346C71.7974 1.75066 71.765 1.42473 71.5684 1.15266C70.6472 -0.110668 68.5434 -0.142993 67.1427 0.158699C67.3232 0.923702 66.6632 1.80453 66.5905 2.37559C66.507 3.04362 67.0134 3.59313 66.8275 4.48743C66.7306 4.94805 64.6106 7.75216 64.1635 8.28012C62.2752 10.5078 59.4415 14.5025 57.5128 16.2965C57.1518 16.6332 56.6643 16.776 56.3006 17.1019C53.176 19.9006 49.4479 23.8792 45.6499 25.692C44.4216 26.2766 42.8 26.6671 41.7683 27.5938C41.5905 27.7554 40.2167 29.1157 40.1602 29.2127C40.0928 29.3285 39.3143 31.5912 39.3036 31.7232C39.2874 31.8902 40.0389 32.569 40.1871 33.0781C41.2807 36.8681 40.7231 42.0642 42.2154 45.7168C42.5979 46.6515 44.497 48.8388 45.4344 49.0893C46.1293 49.2751 46.757 48.8253 47.1287 48.8899C47.2742 48.9142 47.495 49.1566 47.7159 49.2293C48.8257 49.5957 49.5315 49.2132 50.4904 48.6987C51.4036 48.2084 51.3093 48.3377 52.2548 48.0387C52.8474 47.8502 53.6528 47.3842 54.2023 47.2926C54.6279 47.2199 54.6198 48.7391 54.205 48.9142C51.9342 50.3634 49.7065 51.8853 47.3927 53.2672C45.9219 54.148 43.9394 54.9588 42.5979 55.8719C42.1023 56.2113 41.7952 56.7366 41.2349 57.0652C40.804 57.3184 39.0962 57.7871 39.0207 57.876C38.9265 57.9892 39.1258 58.4929 39.045 58.773C38.7433 59.8182 37.3507 61.0007 37.0571 62.1698C36.9628 62.5442 37.0544 62.8728 36.9924 63.1583C36.9682 63.2607 36.7527 63.2418 36.7257 63.3442C36.5884 63.9099 37.0355 64.3247 37.2025 64.8607C37.2645 65.052 37.2214 65.4453 37.286 65.5153C37.3372 65.5692 37.5608 65.5395 37.6497 65.615C38.1776 66.081 38.0375 65.9005 38.5709 66.1806C39.0638 66.4365 38.948 66.7032 39.7399 66.6062C41.2269 66.4204 41.938 65.8116 43.1879 65.2082C43.4222 65.0978 43.7185 65.1624 43.9825 65.0628C45.1031 64.6345 45.3778 63.6243 47.1853 63.1529C48.1873 62.889 47.961 62.8324 48.6964 62.5092C49.6985 62.0728 50.6466 62.3314 51.5598 62.1455C52.1847 62.0162 53.9895 60.5455 54.4609 61.3212C54.8784 62.0108 54.7949 65.9409 54.7572 66.9564C54.4986 73.564 54.0083 80.1177 54.3531 86.7253C54.5174 89.8661 53.8844 93.4514 54.073 96.5599C54.1376 97.6104 54.4232 98.7148 54.4878 99.7788C54.6387 102.33 54.2966 105.759 54.6279 108.113C54.7249 108.805 55.4521 109.659 56.1013 109.072C56.2926 108.897 56.6858 108.151 56.7909 107.879C57.2192 106.78 57.5559 105.166 57.9061 104.016C58.0084 103.677 58.4933 103.286 58.5903 102.952C58.8138 102.195 59.0455 101.43 59.2583 100.66C59.5115 99.733 59.5735 98.6394 59.7674 97.6697C60.1715 95.6494 60.1526 95.5524 60.1257 93.4648C60.1149 92.6783 60.3412 91.9133 60.2657 91.1698C60.2172 90.6769 59.8886 90.1382 59.8752 89.6802C59.8617 89.1981 60.1418 88.6459 60.1364 88.0829C60.1203 86.7549 59.4226 85.5535 59.3176 84.4518C59.1021 82.2026 60.0395 79.9669 59.6947 77.7473C59.4927 76.4381 59.859 76.5432 59.8725 75.4307C59.8859 74.4475 59.5169 73.3296 59.4522 72.3384C59.3283 70.4097 59.7243 68.2117 59.5977 66.4069C59.5088 65.1166 58.6361 64.1819 59.0563 62.8135C59.094 62.6923 59.5896 62.4795 59.6974 61.9408C59.8563 61.1408 59.5438 59.6835 60.5028 59.2498C61.1897 58.9427 62.391 59.1232 63.2288 58.8808C63.9211 58.6788 64.678 58.0808 65.381 57.806C65.9063 57.5986 68.5218 56.8228 68.9528 56.7959C69.3165 56.7716 72.4735 57.3966 73.0472 57.5312C74.219 57.806 75.3153 58.4579 76.584 58.2451L79.372 56.5939C79.8622 55.7561 80.5141 52.4806 80.0535 51.7668ZM54.4232 40.6554C54.1753 41.5524 52.1632 43.3464 51.452 44.141C51.048 44.5962 50.3449 45.7222 49.9732 46.0266C49.7335 46.2232 49.5126 46.172 49.2351 46.1613C49.2702 45.275 49.5692 43.904 49.3106 43.0608C49.192 42.6837 48.621 42.3228 48.3732 41.9807C47.0533 40.1571 47.1987 39.85 46.6411 37.792C46.2748 36.4398 45.4936 34.9017 45.2297 33.5495C45.0707 32.736 45.464 32.7441 45.8546 32.2188C45.9893 32.0356 45.9543 31.7312 46.1455 31.5669C46.4337 31.3191 47.689 31.0201 48.2035 30.6672C48.6533 30.3575 48.8553 29.8807 49.1867 29.6302C49.817 29.1588 51.1638 29.0403 51.9234 28.7359C52.4837 28.5096 52.9147 27.9978 53.5342 28.0032C54.1619 29.7137 54.504 31.5158 54.3181 33.3528L49.0116 36.8007C49.1786 37.124 48.9739 37.8082 49.2325 38.0237C49.3752 38.1422 51.215 38.6028 51.4547 38.6028C52.4191 38.6082 53.5585 37.6277 54.345 37.1482C54.4474 38.2661 54.7275 39.5618 54.4232 40.6554ZM60.4004 39.6372C60.4758 38.9557 60.2226 38.0183 60.4301 37.3772C60.4812 37.2183 62.0355 34.8371 62.2294 34.6027C62.9863 33.6815 63.6301 33.9805 62.9217 32.4047C62.6065 31.7043 61.8927 31.1979 61.1277 31.1036C60.3654 31.012 59.9694 31.4861 59.5681 30.7831C59.0293 29.8376 59.6139 29.9857 59.9991 29.509C60.7183 28.6201 60.7317 26.9904 60.1607 26.018C59.964 25.6866 58.8112 24.7708 59.0563 24.5014C59.0697 24.4853 59.3203 24.5095 59.4442 24.4233C60.7533 23.5479 61.3944 23.6933 62.8274 23.362C63.4443 23.2192 64.1096 22.8367 64.651 22.7613C65.0524 22.7047 67.3986 22.5728 67.7218 22.6185C67.9212 22.6482 69.0579 23.3566 69.1144 23.4509C69.198 23.5964 69.1522 23.8442 69.1441 24.022C69.0363 25.8159 68.5892 28.348 68.3198 30.2012C67.773 33.9858 66.7548 37.9294 65.346 41.4877C65.2005 41.8568 64.5568 43.4299 64.3682 43.6077C64.2254 43.745 64.1904 43.7477 63.9992 43.7208C63.4066 43.6373 61.451 41.8999 60.6213 41.7032C59.762 40.9086 60.3115 40.4668 60.4004 39.6372Z" fill="#CACACA"/>
<path id="Vector_2" d="M44.8201 18.6886C44.7878 18.6697 44.6289 18.2253 44.4646 18.0367C44.3003 17.8482 43.6915 17.137 43.4491 17.296C43.2686 17.4145 42.113 19.1384 41.7736 19.5236C40.3917 21.0913 38.7109 22.3924 37.2563 23.8874C37.0031 24.2456 37.1351 25.1049 36.9627 25.4093C36.8738 25.5655 36.0118 25.9561 35.7856 26.1797C35.0906 26.8693 33.7842 28.4612 33.1 29.2801C32.0737 30.5084 32.4616 30.4869 32.1464 31.8256C31.9659 32.596 30.9962 33.3206 32.7606 33.256C34.0293 33.2102 35.7344 32.798 36.9007 33.2748C37.7331 33.6142 38.9425 34.7644 38.8752 35.7288C38.8456 36.1544 38.4711 36.2864 38.3742 36.5719C38.3014 36.7793 38.3796 37.0352 38.2745 37.2776C38.0051 37.9106 36.2408 38.813 35.5755 39.1578C35.1822 39.209 34.1532 38.9935 33.8084 38.8022C33.5552 38.6622 33.5444 38.3686 33.372 38.2878C33.108 38.1612 32.739 38.2554 32.4185 38.1612C32.1383 38.0776 31.1039 37.1025 30.945 37.2803C30.9854 38.0938 30.6352 38.8426 30.5437 39.6373C30.3955 40.9195 30.5113 42.3956 30.4063 43.6697C30.3012 44.9438 29.8245 46.2476 29.7356 47.5755C29.6628 48.6638 29.8379 49.8706 29.7356 50.9372C29.679 51.5137 29.3477 52.1548 29.3288 52.6935C29.2884 53.7036 29.7302 54.7946 29.6036 55.9152C29.5335 56.5347 29.0621 57.1273 29.0621 57.6634C29.0621 57.9812 29.7598 60.524 29.9107 60.99C30.2743 62.1187 31.1093 63.0265 31.2925 64.1847C31.438 65.106 31.2629 66.038 31.3679 66.935C31.4407 67.5491 31.8851 68.298 31.8932 68.8313C31.904 69.4455 31.5215 70.3452 31.5188 70.9863C31.5188 71.3822 31.7316 71.9344 31.7289 72.3304C31.7208 73.9277 29.8056 77.3972 27.9874 77.0524C27.4244 76.9474 26.1638 76.0288 25.8594 75.5386C25.5361 75.0214 25.2883 74.0382 25.0136 73.424C24.7388 72.8099 24.1139 72.1769 24.1031 71.5061C24.095 71.1156 24.3778 70.7977 24.3698 70.4394C24.3617 70.1 24.0169 69.8872 24.0869 69.5182C24.1058 69.4158 24.3752 69.4913 24.3752 69.2408C24.3725 68.8394 23.9361 68.4003 23.9792 68.1768C24.0115 68.0098 24.3886 67.8023 24.4667 67.4575C24.7442 66.2454 24.4964 65.1329 24.4883 63.9935C24.4425 56.8606 24.5718 50.0995 25.0324 42.999C25.0782 42.2825 25.7301 39.3329 24.8061 39.042C23.8822 38.7511 22.7616 41.0245 22.2606 41.706C21.7596 42.3875 20.9326 42.8886 20.7602 43.8367C20.2323 46.7136 20.2296 46.4065 18.7077 48.7796C18.2417 49.5069 17.5117 51.0531 17.0241 51.6726C16.7601 52.0066 16.181 52.1898 15.979 52.5238C15.6369 53.0841 15.2463 55.4357 14.8746 56.3865C14.2362 58.0243 13.1075 59.3684 12.426 60.9335C12.1297 61.615 12.4341 62.0891 12.3883 62.7786C12.294 64.2332 10.9256 65.3161 10.5081 66.6872C9.97747 67.374 8.08113 67.0616 7.35922 66.7383C7.08447 66.6144 6.82318 66.2939 6.6427 66.2427C6.24135 66.1269 5.68645 66.2642 5.22314 66.1834C3.86553 65.9464 4.37733 65.0763 4.37733 64.042C4.37733 63.8238 4.20493 63.5706 4.20493 63.3228C4.20493 62.9322 4.46622 62.4877 4.46352 61.9786C4.46352 61.6419 4.29113 61.2621 4.30998 61.0331C4.33692 60.718 4.67632 60.7557 4.76522 60.5348C4.88374 60.2439 4.78407 59.8452 4.92414 59.619C4.9861 59.522 5.23661 59.5247 5.26624 59.3954C5.35782 59.0048 4.82178 58.4526 4.91337 58.2721C5.06691 57.957 5.86962 57.7603 5.90733 57.7145C6.00161 57.5906 5.91541 56.9199 6.10128 56.6963C6.1767 56.6047 6.57806 56.4943 6.81241 56.2626C7.2003 55.8801 7.23531 55.4141 7.4535 55.0882C9.30675 52.3272 10.6859 49.1513 12.3668 46.2125C15.1816 41.2885 18.8289 36.6689 20.5959 31.233C20.2646 30.9906 16.5689 32.5745 15.9736 32.8654C15.179 33.256 14.15 33.8297 13.5277 34.4547C12.9594 35.0257 12.0893 36.4237 11.4078 36.7766C10.333 37.3342 9.20169 37.6251 8.0488 37.8568C6.79624 38.11 6.60769 38.6676 4.92414 38.4979C3.54498 38.3578 1.4924 36.4749 0.616958 35.4055C-0.339296 34.2365 0.724705 34.5651 0.665444 34.0156C0.651976 33.8917 0.487662 33.7247 0.447257 33.555C0.398771 33.3529 0.455338 33.0997 0.398771 32.9327C0.315267 32.6876 -0.0106676 32.8088 0.0135754 32.5799C0.242538 32.5718 0.50113 32.6149 0.722011 32.5475C8.55791 30.1582 16.4773 26.5218 23.6452 22.5082C24.8115 21.8563 24.8196 21.8294 25.6331 20.8651C26.7698 19.5182 27.5752 20.4799 28.8709 20.3425C29.2534 20.3021 29.3854 20.0435 29.5901 19.9977C29.8595 19.9385 31.0662 19.8684 31.57 19.8038C32.0737 19.7391 32.6016 19.8873 33.1 19.7203C33.4959 19.5856 35.1041 17.9909 35.6751 17.5842C36.0522 17.3148 36.6556 17.1882 36.9492 16.8407C37.4179 16.2912 37.2078 15.2111 37.9136 14.842C38.824 14.3679 40.1924 15.6986 41.4342 15.0036C41.6174 14.9013 41.9621 14.57 41.9729 14.3518C42.0026 13.8481 41.2699 12.4312 41.3022 12.0675C41.3076 12.0029 42.0941 11.6204 42.113 11.1167C42.1372 10.4352 40.6315 10.0069 40.7823 8.57384C40.9089 7.37516 42.5197 6.22227 43.6349 6.77447C43.9016 6.90646 44.0794 7.1866 44.3999 7.35361C45.235 7.78999 47.7805 9.03446 48.5697 9.23649C49.13 9.37925 51.2095 9.13682 51.3819 9.65401C51.4385 9.8291 51.522 10.7153 51.5408 10.9766C51.7052 13.3901 51.1476 13.7646 50.7597 15.7229C50.6843 16.108 50.7893 16.504 50.695 16.8704C50.5523 17.436 49.0842 18.7317 48.4728 18.826C48.0472 18.8933 47.7886 18.7209 47.4626 18.7478C46.3771 18.834 46.9508 19.3108 45.4855 18.7802C45.2754 18.7048 44.944 18.7667 44.8336 18.694L44.8201 18.6886Z" fill="#CACACA"/>
<path id="Vector_3" d="M16.1433 3.10284C16.6066 3.07051 17.0942 3.14863 17.5548 3.10015C18.4356 3.00856 19.6559 2.6503 20.5098 2.6934C20.9866 2.71764 24.0277 3.49342 24.6473 3.67928C26.3685 4.20186 26.8237 5.37361 28.378 6.13591C30.2636 7.05984 31.9309 7.15682 33.6953 8.62217C34.9667 9.67809 35.1337 11.4398 34.9748 12.9913C34.8266 14.4459 32.8279 16.6628 31.3761 16.9268C29.1026 17.3416 27.7827 16.9726 25.7786 16.0001C25.415 15.8224 24.9166 15.3591 24.623 15.2729C24.2028 15.1489 23.788 15.2648 23.3731 15.1786C23.0149 15.1032 21.0054 14.594 20.8465 14.4755C20.4667 14.1954 21.0889 12.8297 21.1239 12.326C21.1778 11.5556 20.86 10.4404 20.3724 9.83433C20.1488 9.55688 19.769 9.40873 19.5023 9.09087C19.1683 8.69221 18.9178 8.02957 18.5919 7.57972C17.571 6.17901 16.278 4.91837 16.1406 3.10284H16.1433Z" fill="#CACACA"/>
<path id="Vector_4" d="M54.5174 5.22024C55.374 5.77783 57.4535 6.0903 58.434 6.61826L60.6375 8.83784C60.2738 9.80487 60.5459 11.1813 60.1661 12.0864C59.9398 12.6278 58.302 13.9235 57.7148 14.0743C57.1276 14.2252 55.3902 14.0205 54.9807 13.6083C54.8299 13.4575 54.8514 13.207 54.6952 13.0534C53.2191 11.6177 52.9336 11.4211 52.516 9.31193C52.4191 8.81899 52.1281 8.53346 52.3248 7.90044C52.3733 7.74152 52.6911 7.8331 52.8069 7.69034C52.8527 7.63377 52.7181 7.40481 52.8527 7.20548C52.9874 7.00615 53.378 6.90917 53.4103 6.77718C53.5154 6.3435 53.2433 5.76167 53.5342 5.31452C53.6312 5.16637 54.1592 4.85659 54.2912 4.87276C54.4043 4.88892 54.4285 5.16098 54.5201 5.22024H54.5174Z" fill="#CACACA"/>
</g>
<defs>
<clipPath id="clip0_0_17">
<rect width="80.2122" height="109.072" fill="#CACACA"/>
</clipPath>
</defs>
</svg>
